<?xml version="1.0" encoding="UTF-8" standalone="no"?>
<svg
   xmlns:dc="http://purl.org/dc/elements/1.1/"
   xmlns:cc="http://creativecommons.org/ns#"
   xmlns:rdf="http://www.w3.org/1999/02/22-rdf-syntax-ns#"
   xmlns:svg="http://www.w3.org/2000/svg"
   xmlns="http://www.w3.org/2000/svg"
   xmlns:sodipodi="http://sodipodi.sourceforge.net/DTD/sodipodi-0.dtd"
   xmlns:inkscape="http://www.inkscape.org/namespaces/inkscape"
   width="114.118"
   height="114.118"
   viewBox="0 0 114.118 114.118"
   version="1.1"
   preserveAspectRatio="xMidYMid"
   id="svg6"
   sodipodi:docname="Knockout.svg"
   inkscape:version="0.92.4 5da689c313, 2019-01-14">
  <metadata
     id="metadata12">
    <rdf:RDF>
      <cc:Work
         rdf:about="">
        <dc:format>image/svg+xml</dc:format>
        <dc:type
           rdf:resource="http://purl.org/dc/dcmitype/StillImage" />
        <dc:title></dc:title>
      </cc:Work>
    </rdf:RDF>
  </metadata>
  <defs
     id="defs10" />
  <sodipodi:namedview
     pagecolor="#ffffff"
     bordercolor="#666666"
     borderopacity="1"
     objecttolerance="10"
     gridtolerance="10"
     guidetolerance="10"
     inkscape:pageopacity="0"
     inkscape:pageshadow="2"
     inkscape:window-width="1920"
     inkscape:window-height="1021"
     id="namedview8"
     showgrid="false"
     inkscape:zoom="4.84375"
     inkscape:cx="79.139274"
     inkscape:cy="67.744382"
     inkscape:window-x="0"
     inkscape:window-y="0"
     inkscape:window-maximized="1"
     inkscape:current-layer="g4" />
  <g
     id="g4"
     style="fill-rule:evenodd"
     transform="translate(0,-9.8819956)">
    <path
       d="m 27.813858,11.3973 c 5.075481,-1.7475851 10.503121,-1.6243297 15.789897,-1.364613 0.862788,0.171677 1.716772,0.396178 2.597167,0.479815 2.918512,0.880396 5.753386,2.016106 8.390171,3.561201 3.31469,2.421088 6.299232,5.366012 8.328544,8.96683 0.493021,1.316192 1.025661,2.619177 1.527486,3.930967 0.717523,3.024159 0.620679,6.136358 0.53264,9.222145 -0.290531,3.437945 -1.329398,6.748233 -2.319843,10.036511 -0.528237,1.144514 -0.959631,2.333048 -1.338201,3.534789 -0.695513,1.377819 -1.175329,2.856884 -1.941273,4.199487 1.360211,-1.787203 3.081385,-3.253062 4.58246,-4.91701 2.451902,-2.953727 5.313188,-5.528885 7.914757,-8.350553 3.059375,-3.680054 6.748233,-6.787851 9.781196,-10.494317 5.502473,-5.38362 10.43709,-11.308683 16.09804,-16.538233 0.91121,-0.581061 1.81361,-1.17973 2.711611,-1.787203 2.25822,-1.272172 4.85539,-1.22375 7.36892,-1.003651 1.96768,0.972837 3.90895,2.40348 4.69691,4.534038 0.73073,1.659545 0.40498,3.508376 0.40498,5.260364 -0.65149,1.184132 -1.23256,2.407882 -1.88405,3.592014 -0.31254,0.4446 -0.61627,0.898004 -0.91121,1.35581 -1.83122,1.848831 -3.36751,3.966182 -5.26916,5.748983 -2.16138,2.249411 -4.4504,4.393175 -6.431301,6.809861 -2.98013,3.173827 -6.21119,6.123152 -9.006444,9.464254 -2.236205,2.315441 -4.525234,4.573656 -6.735027,6.915508 -2.363862,2.856884 -5.119501,5.357208 -7.663844,8.051219 0.272922,0.594267 0.545845,1.188534 0.823169,1.782801 0.519434,1.641938 1.043269,3.283876 1.747586,4.859784 0.550247,1.624331 1.052073,3.27067 1.760791,4.842177 0.550248,1.62433 1.052073,3.27067 1.760792,4.842176 0.550247,1.62433 1.052073,3.27067 1.760791,4.837775 0.550248,1.628732 1.052073,3.275072 1.760792,4.842176 0.545845,1.62433 1.060876,3.266268 1.756389,4.837774 0.391776,1.206142 0.796758,2.416686 1.364613,3.561201 0.04842,0.202491 0.140864,0.603071 0.189285,0.80116 0.519434,1.324995 0.937622,2.68961 1.492271,4.0058 0.242109,0.59427 0.519434,1.17533 0.809966,1.75199 1.41744,2.17898 6.62498,3.25306 6.62498,3.25306 0,0 -125.684604,0.004 4.477501,-0.004 1.17533,-0.0132 2.29343,0.4314 3.46436,0.52824 0.92001,0.46661 1.84442,0.92882 2.77764,1.37342 0.74834,0.83637 1.3206,1.796 1.87084,2.77324 0.066,1.70357 0.0748,3.41154 -0.022,5.1195 -0.19809,0.46221 -0.38298,0.92442 -0.54585,1.39983 -1.07408,1.89285 -2.672,3.41594 -4.52083,4.54725 -1.86204,0.56345 -3.70647,1.37782 -5.669751,1.43504 -131.487098,0.004 -8.46129,0.004 -8.46129,0.004 0,0 -11.504769,-1.10203 -13.712167,-7.30728 -0.528237,-1.05207 -1.060877,-2.09534 -1.571506,-3.15182 -0.343354,-0.88479 -0.691111,-1.76959 -1.109299,-2.62358 -0.04402,-0.19808 -0.136461,-0.59426 -0.184883,-0.79235 -0.950827,-2.51353 -1.826821,-5.06228 -2.84808,-7.5538 -0.559051,-1.63313 -1.047671,-3.297083 -1.804811,-4.855383 L 68.835896,96.92334 c -0.519434,-1.338201 -0.928818,-2.71602 -1.523085,-4.019006 -0.391776,-1.197338 -0.80116,-2.390274 -1.320593,-3.534789 -0.550248,-1.62433 -1.056475,-3.27067 -1.765194,-4.837774 -0.550247,-1.62433 -1.060876,-3.266268 -1.756389,-4.833372 -0.396178,-1.206143 -0.80116,-2.412285 -1.364613,-3.552397 -0.04842,-0.198089 -0.145266,-0.598669 -0.193687,-0.796758 -0.519434,-1.338202 -0.928818,-2.716021 -1.523085,-4.019007 -0.391776,-1.197338 -0.80116,-2.390274 -1.324996,-3.534788 -0.620679,-1.914861 -1.294181,-3.812114 -2.086537,-5.660945 -0.09684,0.567856 -0.206893,1.135711 -0.316943,1.703566 -0.369766,0.717522 -0.69111,1.457055 -0.968435,2.214195 -0.308139,0.726327 -0.603071,1.457055 -0.871592,2.200989 -0.31254,0.721925 -0.611875,1.457055 -0.884798,2.196588 -0.31254,0.726326 -0.607473,1.461456 -0.880395,2.200989 -0.312541,0.726326 -0.607473,1.457055 -0.884798,2.200989 -0.31254,0.726327 -0.607473,1.461457 -0.871592,2.209793 -0.814366,1.725576 -1.51428,3.499573 -2.187783,5.282375 -0.321344,0.726326 -0.616277,1.457054 -0.884798,2.200989 -0.316942,0.721924 -0.616277,1.457055 -0.884797,2.200989 -0.316943,0.721925 -0.611875,1.457055 -0.880396,2.200989 -0.316942,0.721925 -0.616277,1.452653 -0.884798,2.196588 -0.316942,0.726326 -0.611875,1.457054 -0.880395,2.196587 -0.316943,0.730728 -0.611875,1.461457 -0.880396,2.209793 -0.374168,0.853984 -0.708719,1.721174 -1.052073,2.588363 -0.286129,0.594268 -0.572257,1.188535 -0.853984,1.782802 -1.391025,2.253822 -2.962531,4.454802 -5.242756,5.885452 -0.220099,0.11885 -0.651493,0.36096 -0.86719,0.48421 -1.71237,0.45781 -3.433543,1.22376 -5.242756,0.93763 -0.748337,-0.15848 -1.479065,-0.36537 -2.231803,-0.48862 -1.316192,-0.74394 -2.553148,-1.62874 -3.587613,-2.73803 -0.321344,-0.63389 -0.655895,-1.26337 -1.003651,-1.88405 -0.413786,-2.984547 0.180481,-5.960284 1.439447,-8.676305 0.316942,-0.721924 0.616277,-1.452653 0.8892,-2.196587 0.316942,-0.726326 0.611875,-1.457055 0.880395,-2.200989 0.316943,-0.726327 0.611875,-1.457055 0.880396,-2.200989 0.316942,-0.721925 0.616277,-1.452653 0.884798,-2.196588 0.31254,-0.726326 0.611875,-1.457055 0.880395,-2.196587 0.312541,-0.730728 0.611875,-1.461457 0.884798,-2.200989 0.308139,-0.730729 0.607473,-1.461457 0.880396,-2.20099 0.31254,-0.726326 0.607473,-1.461456 0.884798,-2.200989 0.308138,-0.726326 0.607472,-1.461457 0.871591,-2.209793 1.131309,-2.4475 2.082136,-4.974236 3.068179,-7.483363 0.316943,-0.726327 0.620679,-1.457055 0.8892,-2.20099 0.31254,-0.726326 0.611875,-1.457055 0.880396,-2.200989 0.316942,-0.721924 0.611875,-1.457055 0.880395,-2.196587 0.316943,-0.726327 0.616277,-1.457055 0.884798,-2.200989 0.31254,-0.726327 0.611875,-1.457055 0.880396,-2.20099 0.31254,-0.726326 0.611875,-1.457054 0.884797,-2.200989 0.308139,-0.726326 0.607473,-1.457055 0.880396,-2.196587 0.31254,-0.726327 0.607473,-1.461457 0.880396,-2.205391 1.289779,-3.028562 2.40348,-6.127555 3.244258,-9.314587 0.625081,-2.311039 0.972837,-4.877392 0.08804,-7.162019 -1.377819,-2.385872 -3.688858,-4.168674 -6.382868,-4.793755 -2.817267,-0.396178 -5.76219,-0.180481 -8.390171,0.990446 -0.594268,0.272922 -1.184133,0.559051 -1.751988,0.880395 -4.542842,2.856884 -8.438593,7.298481 -9.574303,12.664492 -0.40058,1.263368 -0.237707,2.614776 -0.449002,3.913359 0.118854,1.765194 0.224501,3.547995 1.122505,5.128305 1.241358,2.086538 3.098993,3.785702 5.299982,4.820167 0.911209,0.396178 1.822419,0.805562 2.78205,1.082886 1.347006,0.704317 2.57956,1.606723 3.622828,2.711619 0.101246,0.237707 0.299335,0.717523 0.396179,0.95523 0.184883,0.466609 0.374168,0.928817 0.576659,1.391025 0.638287,4.177477 -2.218597,8.086434 -5.929465,9.719568 -3.385122,0.981641 -7.091588,0.805562 -10.489915,-0.03521 -0.721926,-0.34336 -1.452654,-0.647096 -2.20099,-0.924421 C 13.46781,70.106487 12.71067,69.675093 11.949128,69.256905 8.4847698,66.910651 5.9800448,63.499118 3.8847028,59.942319 c -0.42259,-1.056475 -0.818768,-2.121754 -1.302986,-3.147415 -1.166524,-4.07183 -1.69476199,-8.297729 -1.391025,-12.532433 0.585463,-3.292679 1.038867,-6.655791 2.275823,-9.807608 0.475413,-1.021259 0.880395,-2.073331 1.302985,-3.1166 0.620679,-1.016857 1.24576,-2.033714 1.818018,-3.076983 0.598669,-0.875994 1.188534,-1.751988 1.769595,-2.641187 2.9053062,-3.719672 6.2992322,-7.060774 10.1949822,-9.745981 0.449002,-0.299334 0.902406,-0.603071 1.347006,-0.915611 1.729977,-0.942024 3.495171,-1.813616 5.269168,-2.667599 0.8892,-0.272923 1.769595,-0.576659 2.645589,-0.893602 z"
       id="path2"
       inkscape:connector-curvature="0"
       style="fill:#e42e16"
       sodipodi:nodetypes="ccccccccccccccccccccccccccccccccccccccccccccccccccccccccccccccccccccccccccccccccccccccccccccccccccccccccccccccccccccccccccccccccccc" />
  </g>
</svg>
