<?xml version="1.0" encoding="UTF-8" standalone="no"?>
<svg
   xmlns:dc="http://purl.org/dc/elements/1.1/"
   xmlns:cc="http://creativecommons.org/ns#"
   xmlns:rdf="http://www.w3.org/1999/02/22-rdf-syntax-ns#"
   xmlns:svg="http://www.w3.org/2000/svg"
   xmlns="http://www.w3.org/2000/svg"
   xmlns:sodipodi="http://sodipodi.sourceforge.net/DTD/sodipodi-0.dtd"
   xmlns:inkscape="http://www.inkscape.org/namespaces/inkscape"
   width="256"
   height="256"
   viewBox="0 0 256 256"
   version="1.1"
   preserveAspectRatio="xMidYMid"
   id="svg88"
   sodipodi:docname="Marko.svg"
   inkscape:version="0.92.4 5da689c313, 2019-01-14">
  <metadata
     id="metadata92">
    <rdf:RDF>
      <cc:Work
         rdf:about="">
        <dc:format>image/svg+xml</dc:format>
        <dc:type
           rdf:resource="http://purl.org/dc/dcmitype/StillImage" />
        <dc:title></dc:title>
      </cc:Work>
    </rdf:RDF>
  </metadata>
  <sodipodi:namedview
     pagecolor="#ffffff"
     bordercolor="#666666"
     borderopacity="1"
     objecttolerance="10"
     gridtolerance="10"
     guidetolerance="10"
     inkscape:pageopacity="0"
     inkscape:pageshadow="2"
     inkscape:window-width="1920"
     inkscape:window-height="1021"
     id="namedview90"
     showgrid="false"
     inkscape:zoom="1.1028037"
     inkscape:cx="128"
     inkscape:cy="107"
     inkscape:window-x="0"
     inkscape:window-y="0"
     inkscape:window-maximized="1"
     inkscape:current-layer="g86" />
  <defs
     id="defs52">
    <linearGradient
       x1="98.768127"
       y1="82.87793"
       x2="98.768127"
       y2="29.177988"
       id="linearGradient-1"
       gradientTransform="scale(1.1880675,0.84170301)"
       gradientUnits="userSpaceOnUse">
      <stop
         stop-color="#8AC23E"
         offset="0%"
         id="stop2" />
      <stop
         stop-color="#8AC23E"
         stop-opacity="0"
         offset="100%"
         id="stop4" />
    </linearGradient>
    <linearGradient
       x1="111.47795"
       y1="0.034187242"
       x2="111.47795"
       y2="53.692024"
       id="linearGradient-2"
       gradientTransform="scale(1.1871361,0.84236342)"
       gradientUnits="userSpaceOnUse">
      <stop
         stop-color="#698932"
         offset="0%"
         id="stop7" />
      <stop
         stop-color="#698932"
         stop-opacity="0"
         offset="100%"
         id="stop9" />
    </linearGradient>
    <linearGradient
       x1="134.70447"
       y1="0.034214064"
       x2="134.70447"
       y2="53.73415"
       id="linearGradient-3"
       gradientTransform="scale(1.1880675,0.84170301)"
       gradientUnits="userSpaceOnUse">
      <stop
         stop-color="#FFED01"
         offset="0%"
         id="stop12" />
      <stop
         stop-color="#FFED01"
         stop-opacity="0"
         offset="100%"
         id="stop14" />
    </linearGradient>
    <linearGradient
       x1="175.92509"
       y1="0.034214064"
       x2="175.92509"
       y2="53.750431"
       id="linearGradient-4"
       gradientTransform="scale(1.1880675,0.84170301)"
       gradientUnits="userSpaceOnUse">
      <stop
         stop-color="#E02A89"
         offset="0%"
         id="stop17" />
      <stop
         stop-color="#E02A89"
         stop-opacity="0"
         offset="100%"
         id="stop19" />
    </linearGradient>
    <linearGradient
       x1="188.60587"
       y1="82.87793"
       x2="188.60587"
       y2="136.57787"
       id="linearGradient-5"
       gradientTransform="scale(1.1880675,0.84170301)"
       gradientUnits="userSpaceOnUse">
      <stop
         stop-color="#7F1E4F"
         offset="0%"
         id="stop22" />
      <stop
         stop-color="#7F1E4F"
         stop-opacity="0"
         offset="100%"
         id="stop24" />
    </linearGradient>
    <linearGradient
       x1="147.36351"
       y1="82.87793"
       x2="147.36351"
       y2="136.57787"
       id="linearGradient-6"
       gradientTransform="scale(1.1880675,0.84170301)"
       gradientUnits="userSpaceOnUse">
      <stop
         stop-color="#E95506"
         offset="0%"
         id="stop27" />
      <stop
         stop-color="#E95506"
         stop-opacity="0"
         offset="100%"
         id="stop29" />
    </linearGradient>
    <linearGradient
       x1="26.837786"
       y1="82.87793"
       x2="26.837786"
       y2="29.212204"
       id="linearGradient-7"
       gradientTransform="scale(1.1880675,0.84170301)"
       gradientUnits="userSpaceOnUse">
      <stop
         stop-color="#88D0F1"
         offset="0%"
         id="stop32" />
      <stop
         stop-color="#88D0F1"
         stop-opacity="0"
         offset="100%"
         id="stop34" />
    </linearGradient>
    <linearGradient
       x1="39.486897"
       y1="0.034214064"
       x2="39.486897"
       y2="53.69994"
       id="linearGradient-8"
       gradientTransform="scale(1.1880675,0.84170301)"
       gradientUnits="userSpaceOnUse">
      <stop
         stop-color="#00828B"
         offset="0%"
         id="stop37" />
      <stop
         stop-color="#00828B"
         stop-opacity="0"
         offset="83.25%"
         id="stop39" />
    </linearGradient>
    <linearGradient
       x1="39.506592"
       y1="165.59219"
       x2="39.506592"
       y2="111.9848"
       id="linearGradient-9"
       gradientTransform="scale(1.1871361,0.84236342)"
       gradientUnits="userSpaceOnUse">
      <stop
         stop-color="#2073BA"
         offset="0%"
         id="stop42" />
      <stop
         stop-color="#2073BA"
         stop-opacity="0"
         offset="100%"
         id="stop44" />
    </linearGradient>
    <linearGradient
       x1="62.800556"
       y1="0.034214064"
       x2="62.800556"
       y2="53.69994"
       id="linearGradient-10"
       gradientTransform="scale(1.1880675,0.84170301)"
       gradientUnits="userSpaceOnUse">
      <stop
         stop-color="#8ED0E1"
         offset="0%"
         id="stop47" />
      <stop
         stop-color="#88D0F1"
         stop-opacity="0"
         offset="100%"
         id="stop49" />
    </linearGradient>
  </defs>
  <g
     id="g86"
     transform="translate(0,42)">
    <g
       id="g914"
       transform="translate(0,0.1)">
      <path
         id="path56"
         d="m 128.1,0 h 36.1 c -13.3,21.8 -28,45.8 -42.7,69.7 H 85.4 C 100.1,45.8 114.8,21.8 128.1,0 Z"
         inkscape:connector-curvature="0"
         style="fill:#8dc220" />
      <path
         id="path58"
         d="M 42.7,0 H 78.8 C 71.7,11.6 64.5,23.3 57.4,34.9 50.3,46.5 43.2,58.1 36.1,69.7 c 7.1,11.6 14.2,23.3 21.3,34.9 7.1,11.6 14.2,23.2 21.4,34.8 H 42.7 C 35.6,127.8 28.4,116.2 21.3,104.6 14.2,93.1 7.1,81.4 0,69.8 7.1,58.2 14.2,46.6 21.3,35 28.4,23.3 35.6,11.7 42.7,0 Z"
         inkscape:connector-curvature="0"
         style="fill:#44bfef" />
      <path
         id="path60"
         d="m 42.7,0 v 0 c 14.7,24 29.4,48 42.7,69.7 h 36.1 C 108.2,48 93.5,24 78.8,0 v 0 z"
         inkscape:connector-curvature="0"
         style="fill:#00ac71" />
      <path
         id="path62"
         d="m 164.2,0 h -36.1 c 7.1,11.6 14.2,23.3 21.4,34.9 7.1,11.6 14.2,23.2 21.4,34.8 -7.1,11.6 -14.3,23.3 -21.4,34.9 -7.1,11.6 -14.2,23.2 -21.4,34.8 h 36.1 c 7.1,-11.6 14.2,-23.2 21.4,-34.8 C 192.7,93 199.8,81.4 207,69.7 199.8,58.1 192.7,46.5 185.6,34.9 178.5,23.3 171.3,11.7 164.2,0 Z"
         inkscape:connector-curvature="0"
         style="fill:#f9bc00" />
      <path
         id="path64"
         d="m 149.3,24.6 h -36.1 c -4.6,7.5 -9.2,15.1 -13.8,22.6 -4.6,7.5 -9.2,15.1 -13.9,22.6 h 36.1 c 4.6,-7.5 9.3,-15.1 13.9,-22.6 4.5,-7.6 9.1,-15.1 13.8,-22.6 z"
         style="fill:url(#linearGradient-1)"
         inkscape:connector-curvature="0" />
      <path
         id="path66"
         d="m 100.5,45.2 h 36.1 c 4.6,-7.5 9.2,-15.1 13.8,-22.6 C 155,15.1 159.6,7.5 164.2,0 h -36.1 c -4.6,7.5 -9.2,15.1 -13.8,22.6 -4.6,7.6 -9.2,15.1 -13.8,22.6 z"
         style="fill:url(#linearGradient-2)"
         inkscape:connector-curvature="0" />
      <path
         id="path68"
         d="M 191.9,45.2 H 155.8 C 151.2,37.7 146.5,30.1 141.9,22.6 137.3,15.1 132.7,7.5 128.1,0 h 36.1 c 4.6,7.5 9.2,15.1 13.8,22.6 4.7,7.6 9.3,15.1 13.9,22.6 z"
         style="fill:url(#linearGradient-3)"
         inkscape:connector-curvature="0" />
      <path
         id="path70"
         d="m 213.2,0 h -36.1 c 7.1,11.7 14.2,23.3 21.3,34.9 7.1,11.6 14.3,23.2 21.4,34.8 -7.1,11.6 -14.3,23.3 -21.4,34.9 -7.1,11.6 -14.2,23.2 -21.4,34.8 h 36.1 c 7.1,-11.6 14.2,-23.2 21.4,-34.8 C 241.6,93 248.7,81.4 255.9,69.7 248.8,58.1 241.7,46.5 234.5,34.9 227.5,23.3 220.3,11.7 213.2,0 Z"
         inkscape:connector-curvature="0"
         style="fill:#df1b1c" />
      <path
         id="path72"
         d="M 240.9,45.2 H 204.8 C 200.1,37.7 195.5,30.1 190.9,22.6 186.3,15.1 181.7,7.5 177.1,0 h 36.1 c 4.6,7.5 9.2,15.1 13.8,22.6 4.6,7.6 9.3,15.1 13.9,22.6 z"
         style="fill:url(#linearGradient-4)"
         inkscape:connector-curvature="0" />
      <path
         id="path74"
         d="m 192.2,115 h 36.1 c 4.6,-7.5 9.2,-15 13.8,-22.6 4.6,-7.5 9.2,-15.1 13.9,-22.6 h -36.2 c -4.6,7.5 -9.2,15.1 -13.8,22.6 -4.6,7.5 -9.2,15 -13.8,22.6 z"
         style="fill:url(#linearGradient-5)"
         inkscape:connector-curvature="0" />
      <path
         id="path76"
         d="m 143.2,115 h 36.1 c 4.6,-7.5 9.2,-15.1 13.8,-22.6 4.6,-7.5 9.2,-15.1 13.9,-22.6 h -36.1 c -4.6,7.5 -9.2,15.1 -13.8,22.6 -4.7,7.5 -9.3,15 -13.9,22.6 z"
         style="fill:url(#linearGradient-6)"
         inkscape:connector-curvature="0" />
      <path
         id="path78"
         d="M 63.8,24.6 H 27.7 C 23.1,32.1 18.5,39.7 13.9,47.2 9.2,54.7 4.6,62.3 0,69.8 h 36.1 c 4.6,-7.5 9.2,-15 13.8,-22.6 4.6,-7.5 9.2,-15.1 13.9,-22.6 z"
         style="fill:url(#linearGradient-7)"
         inkscape:connector-curvature="0" />
      <path
         id="path80"
         d="M 15,45.2 H 51.1 C 55.7,37.7 60.3,30.1 64.9,22.6 69.6,15.1 74.2,7.5 78.8,0 H 42.7 C 38.1,7.5 33.5,15 28.9,22.6 24.3,30.1 19.7,37.7 15,45.2 Z"
         style="fill:url(#linearGradient-8)"
         inkscape:connector-curvature="0" />
      <path
         id="path82"
         d="m 15,94.3 h 36.1 c 4.6,7.5 9.2,15.1 13.8,22.6 4.6,7.5 9.2,15.1 13.8,22.6 H 42.6 C 38,132 33.3,124.5 28.7,116.9 24.2,109.4 19.6,101.9 15,94.3 Z"
         style="fill:url(#linearGradient-9)"
         inkscape:connector-curvature="0" />
      <path
         id="path84"
         d="M 106.5,45.2 H 70.4 C 65.8,37.7 61.2,30.1 56.6,22.6 51.9,15.1 47.3,7.5 42.7,0 h 36.1 c 4.6,7.5 9.2,15 13.8,22.6 4.7,7.5 9.3,15.1 13.9,22.6 z"
         style="fill:url(#linearGradient-10)"
         inkscape:connector-curvature="0" />
    </g>
  </g>
</svg>
