<?xml version="1.0" encoding="UTF-8" standalone="no"?>
<!-- Generator: Adobe Illustrator 21.0.0, SVG Export Plug-In . SVG Version: 6.00 Build 0)  -->

<svg
   xmlns:dc="http://purl.org/dc/elements/1.1/"
   xmlns:cc="http://creativecommons.org/ns#"
   xmlns:rdf="http://www.w3.org/1999/02/22-rdf-syntax-ns#"
   xmlns:svg="http://www.w3.org/2000/svg"
   xmlns="http://www.w3.org/2000/svg"
   xmlns:sodipodi="http://sodipodi.sourceforge.net/DTD/sodipodi-0.dtd"
   xmlns:inkscape="http://www.inkscape.org/namespaces/inkscape"
   version="1.1"
   id="Layer_1"
   x="0px"
   y="0px"
   viewBox="0 0 321.29999 321.29999"
   xml:space="preserve"
   sodipodi:docname="Riot.svg"
   width="321.29999"
   height="321.29999"
   inkscape:version="0.92.4 5da689c313, 2019-01-14"><metadata
   id="metadata37"><rdf:RDF><cc:Work
       rdf:about=""><dc:format>image/svg+xml</dc:format><dc:type
         rdf:resource="http://purl.org/dc/dcmitype/StillImage" /><dc:title></dc:title></cc:Work></rdf:RDF></metadata><defs
   id="defs35" /><sodipodi:namedview
   pagecolor="#ffffff"
   bordercolor="#666666"
   borderopacity="1"
   objecttolerance="10"
   gridtolerance="10"
   guidetolerance="10"
   inkscape:pageopacity="0"
   inkscape:pageshadow="2"
   inkscape:window-width="1920"
   inkscape:window-height="1021"
   id="namedview33"
   showgrid="false"
   inkscape:zoom="0.59"
   inkscape:cx="241.52542"
   inkscape:cy="200"
   inkscape:window-x="0"
   inkscape:window-y="0"
   inkscape:window-maximized="1"
   inkscape:current-layer="Layer_1" />
<style
   type="text/css"
   id="style2">
	.st0{fill:#7DC8A2;}
	.st1{fill:#AFDBC5;}
	.st2{fill:#764D80;}
</style>
<g
   id="g30"
   transform="translate(-39.905853,-38.800006)">
	<path
   class="st0"
   d="m 212.8,38.8 h -91.2 c -0.2,0 -0.4,0 -0.6,0 -25.3,0 -45.9,20.5 -45.9,45.9 v 229.5 c 0,25.3 20.5,45.9 45.9,45.9 25.4,0 45.9,-20.5 45.9,-45.9 v -45.9 h 45.9 C 276,268.3 327.5,216.8 327.5,153.6 327.5,90.4 276,38.8 212.8,38.8 Z"
   id="path4"
   inkscape:connector-curvature="0"
   style="fill:#7dc8a2" />
	<path
   class="st1"
   d="m 121,348.6 c -19,0 -34.4,-15.5 -34.4,-34.4 V 84.7 c 0,-18.9 15.3,-34.3 34.2,-34.4 0.2,0 0.5,0 0.7,0 h 91.3 c 56.9,0 103.3,46.3 103.3,103.3 0,57 -46.3,103.3 -103.3,103.3 h -57.3 v 57.4 c -0.1,18.9 -15.5,34.3 -34.5,34.3 z"
   id="path6"
   inkscape:connector-curvature="0"
   style="fill:#afdbc5" />
	<path
   class="st0"
   d="m 121,337.2 c -12.7,0 -23,-10.3 -23,-23 V 84.7 c 0,-12.5 10.1,-22.7 22.5,-23 0.2,0 0.5,0 0.7,0 h 91.5 c 50.6,0 91.8,41.2 91.8,91.8 0,50.6 -41.2,91.8 -91.8,91.8 H 144 v 68.8 c 0,12.8 -10.3,23.1 -23,23.1 z"
   id="path8"
   inkscape:connector-curvature="0"
   style="fill:#7dc8a2" />
	<path
   class="st1"
   d="m 121,325.7 c -6.4,0 -11.6,-5.2 -11.6,-11.6 V 84.7 c 0,-6.2 5,-11.3 11.1,-11.5 h 0.5 91.8 c 44.3,0 80.4,36.1 80.4,80.4 0,44.3 -36,80.4 -80.4,80.4 h -80.2 v 80.3 c 0,6.2 -5.2,11.4 -11.6,11.4 z"
   id="path10"
   inkscape:connector-curvature="0"
   style="fill:#afdbc5" />
	<path
   class="st0"
   d="m 121.1,222.4 h 91.7 c 38,0 68.9,-30.9 68.9,-68.9 0,-38 -30.9,-68.9 -68.9,-68.9 H 121 Z"
   id="path12"
   inkscape:connector-curvature="0"
   style="fill:#7dc8a2" />
	<path
   class="st1"
   d="M 132.5,211 132.4,96.1 h 80.3 c 31.7,0 57.5,25.8 57.5,57.5 0,31.7 -25.7,57.4 -57.4,57.4 z"
   id="path14"
   inkscape:connector-curvature="0"
   style="fill:#afdbc5" />
	<path
   class="st0"
   d="m 144,199.6 -0.1,-92 h 68.9 c 25.4,0 46,20.6 46,46 0,25.4 -20.6,46 -46,46 z"
   id="path16"
   inkscape:connector-curvature="0"
   style="fill:#7dc8a2" />
	<path
   class="st1"
   d="M 155.4,188.1 155.3,119 h 57.4 c 19.1,0 34.6,15.5 34.6,34.6 0,19.1 -15.5,34.6 -34.6,34.6 h -57.3 z"
   id="path18"
   inkscape:connector-curvature="0"
   style="fill:#afdbc5" />
	<path
   class="st0"
   d="m 166.9,176.7 v -46.3 h 45.9 c 12.8,0 23.1,10.4 23.1,23.1 0,12.7 -10.4,23.1 -23.1,23.1 h -45.9 z"
   id="path20"
   inkscape:connector-curvature="0"
   style="fill:#7dc8a2" />
	<path
   class="st1"
   d="m 178.3,165.2 v -23.4 h 34.5 c 6.4,0 11.7,5.2 11.7,11.7 0,6.5 -5.2,11.7 -11.7,11.7 z"
   id="path22"
   inkscape:connector-curvature="0"
   style="fill:#afdbc5" />
	<g
   id="g28">
		
			<circle
   transform="matrix(0.8192,-0.5736,0.5736,0.8192,-26.9642,83.8822)"
   class="st2"
   cx="119.5"
   cy="84.699997"
   id="ellipse24"
   r="45.900002"
   style="fill:#764d80" />
		<path
   class="st2"
   d="m 317.7,287.8 c 14.5,20.8 9.5,49.4 -11.3,63.9 -20.8,14.5 -49.4,9.5 -63.9,-11.3 l -68.7,-98.2 c -14.5,-20.8 -9.5,-49.4 11.3,-63.9 20.8,-14.5 49.4,-9.5 63.9,11.3 z"
   id="path26"
   inkscape:connector-curvature="0"
   style="fill:#764d80" />
	</g>
</g>
</svg>